<?xml version="1.0" encoding="us-ascii" standalone="no"?><svg xmlns="http://www.w3.org/2000/svg" xmlns:xlink="http://www.w3.org/1999/xlink" contentStyleType="text/css" height="386px" preserveAspectRatio="none" style="width:633px;height:386px;background:#FFFFFF;" version="1.1" viewBox="0 0 633 386" width="633px" zoomAndPan="magnify"><defs/><g><line style="stroke:#181818;stroke-width:0.5;stroke-dasharray:5.0,5.0;" x1="52" x2="52" y1="81.2969" y2="305.2266"/><line style="stroke:#181818;stroke-width:0.5;stroke-dasharray:5.0,5.0;" x1="132" x2="132" y1="81.2969" y2="305.2266"/><line style="stroke:#181818;stroke-width:0.5;stroke-dasharray:5.0,5.0;" x1="200" x2="200" y1="81.2969" y2="305.2266"/><line style="stroke:#181818;stroke-width:0.5;stroke-dasharray:5.0,5.0;" x1="276" x2="276" y1="81.2969" y2="305.2266"/><line style="stroke:#181818;stroke-width:0.5;stroke-dasharray:5.0,5.0;" x1="340" x2="340" y1="81.2969" y2="305.2266"/><line style="stroke:#181818;stroke-width:0.5;stroke-dasharray:5.0,5.0;" x1="411" x2="411" y1="81.2969" y2="305.2266"/><line style="stroke:#181818;stroke-width:0.5;stroke-dasharray:5.0,5.0;" x1="505" x2="505" y1="81.2969" y2="305.2266"/><line style="stroke:#181818;stroke-width:0.5;stroke-dasharray:5.0,5.0;" x1="594" x2="594" y1="81.2969" y2="305.2266"/><rect fill="#E2E2F0" height="30.2969" rx="2.5" ry="2.5" style="stroke:#181818;stroke-width:0.5;" width="95" x="5" y="50"/><text fill="#000000" font-family="sans-serif" font-size="14" lengthAdjust="spacing" textLength="81" x="12" y="69.9951">participant</text><rect fill="#E2E2F0" height="30.2969" rx="2.5" ry="2.5" style="stroke:#181818;stroke-width:0.5;" width="95" x="5" y="304.2266"/><text fill="#000000" font-family="sans-serif" font-size="14" lengthAdjust="spacing" textLength="81" x="12" y="324.2217">participant</text><text fill="#000000" font-family="sans-serif" font-size="14" lengthAdjust="spacing" textLength="38" x="110" y="77.9951">actor</text><ellipse cx="132" cy="13.5" fill="#E2E2F0" rx="8" ry="8" style="stroke:#181818;stroke-width:0.5;"/><path d="M132,21.5 L132,48.5 M119,29.5 L145,29.5 M132,48.5 L119,63.5 M132,48.5 L145,63.5 " fill="none" style="stroke:#181818;stroke-width:0.5;"/><text fill="#000000" font-family="sans-serif" font-size="14" lengthAdjust="spacing" textLength="38" x="110" y="317.2217">actor</text><ellipse cx="132" cy="329.0234" fill="#E2E2F0" rx="8" ry="8" style="stroke:#181818;stroke-width:0.5;"/><path d="M132,337.0234 L132,364.0234 M119,345.0234 L145,345.0234 M132,364.0234 L119,379.0234 M132,364.0234 L145,379.0234 " fill="none" style="stroke:#181818;stroke-width:0.5;"/><text fill="#000000" font-family="sans-serif" font-size="14" lengthAdjust="spacing" textLength="67" x="164" y="77.9951">boundary</text><path d="M180,37 L180,61 M180,49 L197,49 " fill="none" style="stroke:#181818;stroke-width:0.5;"/><ellipse cx="209" cy="49" fill="#E2E2F0" rx="12" ry="12" style="stroke:#181818;stroke-width:0.5;"/><text fill="#000000" font-family="sans-serif" font-size="14" lengthAdjust="spacing" textLength="67" x="164" y="317.2217">boundary</text><path d="M180,324.5234 L180,348.5234 M180,336.5234 L197,336.5234 " fill="none" style="stroke:#181818;stroke-width:0.5;"/><ellipse cx="209" cy="336.5234" fill="#E2E2F0" rx="12" ry="12" style="stroke:#181818;stroke-width:0.5;"/><text fill="#000000" font-family="sans-serif" font-size="14" lengthAdjust="spacing" textLength="52" x="247" y="77.9951">control</text><ellipse cx="276" cy="49" fill="#E2E2F0" rx="12" ry="12" style="stroke:#181818;stroke-width:0.5;"/><polygon fill="#181818" points="272,37,278,32,276,37,278,42,272,37" style="stroke:#181818;stroke-width:1.0;"/><text fill="#000000" font-family="sans-serif" font-size="14" lengthAdjust="spacing" textLength="52" x="247" y="317.2217">control</text><ellipse cx="276" cy="336.5234" fill="#E2E2F0" rx="12" ry="12" style="stroke:#181818;stroke-width:0.5;"/><polygon fill="#181818" points="272,324.5234,278,319.5234,276,324.5234,278,329.5234,272,324.5234" style="stroke:#181818;stroke-width:1.0;"/><text fill="#000000" font-family="sans-serif" font-size="14" lengthAdjust="spacing" textLength="44" x="315" y="77.9951">entity</text><ellipse cx="340" cy="49" fill="#E2E2F0" rx="12" ry="12" style="stroke:#181818;stroke-width:0.5;"/><line style="stroke:#181818;stroke-width:0.5;" x1="328" x2="352" y1="63" y2="63"/><text fill="#000000" font-family="sans-serif" font-size="14" lengthAdjust="spacing" textLength="44" x="315" y="317.2217">entity</text><ellipse cx="340" cy="336.5234" fill="#E2E2F0" rx="12" ry="12" style="stroke:#181818;stroke-width:0.5;"/><line style="stroke:#181818;stroke-width:0.5;" x1="328" x2="352" y1="350.5234" y2="350.5234"/><text fill="#000000" font-family="sans-serif" font-size="14" lengthAdjust="spacing" textLength="66" x="375" y="77.9951">database</text><path d="M393,29 C393,19 411,19 411,19 C411,19 429,19 429,29 L429,55 C429,65 411,65 411,65 C411,65 393,65 393,55 L393,29 " fill="#E2E2F0" style="stroke:#181818;stroke-width:1.5;"/><path d="M393,29 C393,39 411,39 411,39 C411,39 429,39 429,29 " fill="none" style="stroke:#181818;stroke-width:1.5;"/><text fill="#000000" font-family="sans-serif" font-size="14" lengthAdjust="spacing" textLength="66" x="375" y="317.2217">database</text><path d="M393,330.5234 C393,320.5234 411,320.5234 411,320.5234 C411,320.5234 429,320.5234 429,330.5234 L429,356.5234 C429,366.5234 411,366.5234 411,366.5234 C411,366.5234 393,366.5234 393,356.5234 L393,330.5234 " fill="#E2E2F0" style="stroke:#181818;stroke-width:1.5;"/><path d="M393,330.5234 C393,340.5234 411,340.5234 411,340.5234 C411,340.5234 429,340.5234 429,330.5234 " fill="none" style="stroke:#181818;stroke-width:1.5;"/><rect fill="#E2E2F0" height="30.2969" style="stroke:#181818;stroke-width:0.5;" width="92" x="461" y="46"/><rect fill="#E2E2F0" height="30.2969" style="stroke:#181818;stroke-width:0.5;" width="92" x="457" y="50"/><text fill="#000000" font-family="sans-serif" font-size="14" lengthAdjust="spacing" textLength="78" x="464" y="69.9951">collections</text><rect fill="#E2E2F0" height="30.2969" style="stroke:#181818;stroke-width:0.5;" width="92" x="461" y="304.2266"/><rect fill="#E2E2F0" height="30.2969" style="stroke:#181818;stroke-width:0.5;" width="92" x="457" y="308.2266"/><text fill="#000000" font-family="sans-serif" font-size="14" lengthAdjust="spacing" textLength="78" x="464" y="328.2217">collections</text><path d="M568,55 L621,55 C626,55 626,68.1484 626,68.1484 C626,68.1484 626,81.2969 621,81.2969 L568,81.2969 C563,81.2969 563,68.1484 563,68.1484 C563,68.1484 563,55 568,55 " fill="#E2E2F0" style="stroke:#181818;stroke-width:0.5;"/><path d="M621,55 C616,55 616,68.1484 616,68.1484 C616,81.2969 621,81.2969 621,81.2969 " fill="none" style="stroke:#181818;stroke-width:0.5;"/><text fill="#000000" font-family="sans-serif" font-size="14" lengthAdjust="spacing" textLength="43" x="568" y="72.9951">queue</text><path d="M568,304.2266 L621,304.2266 C626,304.2266 626,317.375 626,317.375 C626,317.375 626,330.5234 621,330.5234 L568,330.5234 C563,330.5234 563,317.375 563,317.375 C563,317.375 563,304.2266 568,304.2266 " fill="#E2E2F0" style="stroke:#181818;stroke-width:0.5;"/><path d="M621,304.2266 C616,304.2266 616,317.375 616,317.375 C616,330.5234 621,330.5234 621,330.5234 " fill="none" style="stroke:#181818;stroke-width:0.5;"/><text fill="#000000" font-family="sans-serif" font-size="14" lengthAdjust="spacing" textLength="43" x="568" y="322.2217">queue</text><polygon fill="#181818" points="120,108.4297,130,112.4297,120,116.4297,124,112.4297" style="stroke:#181818;stroke-width:1.0;"/><line style="stroke:#181818;stroke-width:1.0;" x1="52.5" x2="126" y1="112.4297" y2="112.4297"/><text fill="#000000" font-family="sans-serif" font-size="13" lengthAdjust="spacing" textLength="53" x="59.5" y="107.3638">To actor</text><polygon fill="#181818" points="188.5,137.5625,198.5,141.5625,188.5,145.5625,192.5,141.5625" style="stroke:#181818;stroke-width:1.0;"/><line style="stroke:#181818;stroke-width:1.0;" x1="52.5" x2="194.5" y1="141.5625" y2="141.5625"/><text fill="#000000" font-family="sans-serif" font-size="13" lengthAdjust="spacing" textLength="81" x="59.5" y="136.4966">To boundary</text><polygon fill="#181818" points="264,166.6953,274,170.6953,264,174.6953,268,170.6953" style="stroke:#181818;stroke-width:1.0;"/><line style="stroke:#181818;stroke-width:1.0;" x1="52.5" x2="270" y1="170.6953" y2="170.6953"/><text fill="#000000" font-family="sans-serif" font-size="13" lengthAdjust="spacing" textLength="64" x="59.5" y="165.6294">To control</text><polygon fill="#181818" points="328,195.8281,338,199.8281,328,203.8281,332,199.8281" style="stroke:#181818;stroke-width:1.0;"/><line style="stroke:#181818;stroke-width:1.0;" x1="52.5" x2="334" y1="199.8281" y2="199.8281"/><text fill="#000000" font-family="sans-serif" font-size="13" lengthAdjust="spacing" textLength="57" x="59.5" y="194.7622">To entity</text><polygon fill="#181818" points="399,224.9609,409,228.9609,399,232.9609,403,228.9609" style="stroke:#181818;stroke-width:1.0;"/><line style="stroke:#181818;stroke-width:1.0;" x1="52.5" x2="405" y1="228.9609" y2="228.9609"/><text fill="#000000" font-family="sans-serif" font-size="13" lengthAdjust="spacing" textLength="80" x="59.5" y="223.895">To database</text><polygon fill="#181818" points="493,254.0938,503,258.0938,493,262.0938,497,258.0938" style="stroke:#181818;stroke-width:1.0;"/><line style="stroke:#181818;stroke-width:1.0;" x1="52.5" x2="499" y1="258.0938" y2="258.0938"/><text fill="#000000" font-family="sans-serif" font-size="13" lengthAdjust="spacing" textLength="87" x="59.5" y="253.0278">To collections</text><polygon fill="#181818" points="582.5,283.2266,592.5,287.2266,582.5,291.2266,586.5,287.2266" style="stroke:#181818;stroke-width:1.0;"/><line style="stroke:#181818;stroke-width:1.0;" x1="52.5" x2="588.5" y1="287.2266" y2="287.2266"/><text fill="#000000" font-family="sans-serif" font-size="13" lengthAdjust="spacing" textLength="60" x="59.5" y="282.1606">To queue</text><!--SRC=[LOyz3eCm38NtdC8Nw51-fGuTUu9Um8GCaL1CWncuVI4FAZU3zUbzYkKtSzReuyn9QJRC2xr477kLJ7X_NFJT3RAcaVDsP9RXA-SbQPQf_B4CNxkGDEg6dPRX6pUoyi1BE3BByEs-Vvg2roXf8SlmdVkiOGtdpPRXUxSFkZrB5thGMr3In1NYgvinDSpPoeW60dLCtYA_QXZJNQj-1OpiYol7Vm40]--></g></svg>